<svg width="239" height="42" viewBox="0 0 239 42" fill="none" xmlns="http://www.w3.org/2000/svg">
<path opacity="0.5" d="M40.0652 2.25671L30.2601 36.9917C30.2102 37.1494 30.0108 37.1967 29.8945 37.0863L23.3301 30.8583L28.2492 13.4514C28.2991 13.2937 28.1495 13.1518 27.9833 13.1991L9.63617 17.8662L3.10498 11.6697C2.98865 11.5593 3.03851 11.3701 3.20469 11.3228L39.7993 2.00444C39.9655 1.97291 40.115 2.11481 40.0652 2.25671Z" fill="#00B37E"/>
<path opacity="0.5" d="M23.3297 30.858L20.8037 39.8452C20.7538 40.0029 20.5544 40.0502 20.4381 39.9398L0.0634003 20.6251C-0.0529313 20.5147 -0.00307518 20.3255 0.163113 20.2782L9.63583 17.8658L23.3297 30.858Z" fill="#00B37E"/>
<path d="M28.2484 13.4511L23.3292 30.858L9.63533 17.8659L27.9825 13.1988C28.1487 13.1515 28.2982 13.2934 28.2484 13.4511Z" fill="#00B37E"/>
<path d="M61.4377 11.3104V29.5H57.6898V11.3104H61.4377ZM68.6835 19.081V22.0043H60.4133V19.081H68.6835ZM69.558 11.3104V14.2462H60.4133V11.3104H69.558ZM75.3047 15.9828V29.5H71.6943V15.9828H75.3047ZM71.4694 12.4598C71.4694 11.9351 71.6526 11.502 72.0191 11.1605C72.3856 10.819 72.8769 10.6483 73.4933 10.6483C74.1012 10.6483 74.5885 10.819 74.9549 11.1605C75.3297 11.502 75.5171 11.9351 75.5171 12.4598C75.5171 12.9845 75.3297 13.4176 74.9549 13.759C74.5885 14.1005 74.1012 14.2712 73.4933 14.2712C72.8769 14.2712 72.3856 14.1005 72.0191 13.759C71.6526 13.4176 71.4694 12.9845 71.4694 12.4598ZM81.801 18.8686V29.5H78.2031V15.9828H81.5761L81.801 18.8686ZM81.2763 22.2666H80.3018C80.3018 21.2672 80.4309 20.3677 80.6891 19.5682C80.9473 18.7603 81.3096 18.0732 81.776 17.5069C82.2424 16.9322 82.7963 16.495 83.4376 16.1951C84.0872 15.887 84.8118 15.7329 85.6113 15.7329C86.2443 15.7329 86.8231 15.8245 87.3478 16.0077C87.8725 16.191 88.3222 16.4825 88.697 16.8822C89.0801 17.282 89.3716 17.8109 89.5715 18.4688C89.7797 19.1268 89.8839 19.9305 89.8839 20.8799V29.5H86.2609V20.8675C86.2609 20.2678 86.1776 19.8014 86.0111 19.4683C85.8445 19.1351 85.5988 18.9019 85.274 18.7687C84.9575 18.6271 84.5661 18.5563 84.0997 18.5563C83.6166 18.5563 83.196 18.6521 82.8379 18.8436C82.4881 19.0352 82.1966 19.3017 81.9634 19.6432C81.7385 19.9763 81.5678 20.3677 81.4512 20.8175C81.3346 21.2672 81.2763 21.7503 81.2763 22.2666ZM99.9156 26.4517V20.4302C99.9156 19.9971 99.8448 19.6265 99.7032 19.3183C99.5616 19.0019 99.3409 18.7562 99.0411 18.5813C98.7496 18.4064 98.3707 18.3189 97.9043 18.3189C97.5045 18.3189 97.1588 18.3897 96.8673 18.5313C96.5759 18.6645 96.351 18.8603 96.1927 19.1185C96.0345 19.3683 95.9554 19.664 95.9554 20.0054H92.3574C92.3574 19.4308 92.4907 18.8853 92.7572 18.3689C93.0237 17.8525 93.411 17.3986 93.919 17.0072C94.4271 16.6074 95.0309 16.2951 95.7305 16.0702C96.4384 15.8453 97.2296 15.7329 98.1041 15.7329C99.1535 15.7329 100.086 15.9078 100.903 16.2576C101.719 16.6074 102.36 17.1321 102.826 17.8317C103.301 18.5313 103.539 19.4058 103.539 20.4552V26.2394C103.539 26.9806 103.584 27.5886 103.676 28.0633C103.768 28.5297 103.901 28.9378 104.076 29.2876V29.5H100.44C100.265 29.1335 100.132 28.6755 100.041 28.1258C99.9572 27.5678 99.9156 27.0098 99.9156 26.4517ZM100.39 21.2672L100.415 23.3036H98.404C97.9292 23.3036 97.517 23.3577 97.1672 23.466C96.8174 23.5742 96.53 23.7283 96.3052 23.9282C96.0803 24.1198 95.9137 24.3446 95.8055 24.6028C95.7055 24.861 95.6555 25.1442 95.6555 25.4523C95.6555 25.7605 95.7263 26.0395 95.8679 26.2893C96.0095 26.5309 96.2136 26.7224 96.4801 26.864C96.7466 26.9973 97.0589 27.0639 97.417 27.0639C97.9584 27.0639 98.429 26.9556 98.8287 26.7391C99.2285 26.5225 99.5367 26.256 99.7532 25.9395C99.9781 25.6231 100.095 25.3232 100.103 25.0401L101.052 26.5642C100.919 26.9057 100.736 27.2596 100.503 27.6261C100.278 27.9925 99.9906 28.3382 99.6408 28.663C99.291 28.9795 98.8704 29.2418 98.379 29.45C97.8876 29.6499 97.3046 29.7499 96.63 29.7499C95.7721 29.7499 94.9934 29.5791 94.2938 29.2377C93.6026 28.8879 93.0529 28.409 92.6448 27.801C92.245 27.1847 92.0451 26.4851 92.0451 25.7022C92.0451 24.9943 92.1784 24.3654 92.4449 23.8158C92.7114 23.2661 93.1028 22.8038 93.6192 22.4291C94.1439 22.0459 94.7977 21.7586 95.5806 21.5671C96.3635 21.3672 97.2713 21.2672 98.304 21.2672H100.39ZM109.835 18.8686V29.5H106.237V15.9828H109.61L109.835 18.8686ZM109.31 22.2666H108.336C108.336 21.2672 108.465 20.3677 108.723 19.5682C108.981 18.7603 109.344 18.0732 109.81 17.5069C110.276 16.9322 110.83 16.495 111.471 16.1951C112.121 15.887 112.846 15.7329 113.645 15.7329C114.278 15.7329 114.857 15.8245 115.382 16.0077C115.906 16.191 116.356 16.4825 116.731 16.8822C117.114 17.282 117.406 17.8109 117.605 18.4688C117.814 19.1268 117.918 19.9305 117.918 20.8799V29.5H114.295V20.8675C114.295 20.2678 114.212 19.8014 114.045 19.4683C113.878 19.1351 113.633 18.9019 113.308 18.7687C112.991 18.6271 112.6 18.5563 112.134 18.5563C111.651 18.5563 111.23 18.6521 110.872 18.8436C110.522 19.0352 110.231 19.3017 109.997 19.6432C109.772 19.9763 109.602 20.3677 109.485 20.8175C109.369 21.2672 109.31 21.7503 109.31 22.2666ZM126.238 26.939C126.679 26.939 127.071 26.8557 127.412 26.6891C127.754 26.5142 128.02 26.2727 128.212 25.9645C128.412 25.648 128.516 25.2774 128.524 24.8527H131.91C131.901 25.8021 131.647 26.6475 131.148 27.3887C130.648 28.1216 129.978 28.7005 129.136 29.1252C128.295 29.5416 127.354 29.7499 126.313 29.7499C125.264 29.7499 124.347 29.575 123.565 29.2252C122.79 28.8754 122.145 28.3923 121.628 27.776C121.112 27.1513 120.724 26.4268 120.466 25.6022C120.208 24.7694 120.079 23.8782 120.079 22.9288V22.5665C120.079 21.6087 120.208 20.7175 120.466 19.893C120.724 19.0602 121.112 18.3356 121.628 17.7193C122.145 17.0946 122.79 16.6074 123.565 16.2576C124.339 15.9078 125.247 15.7329 126.288 15.7329C127.396 15.7329 128.366 15.9453 129.199 16.37C130.04 16.7948 130.698 17.4028 131.173 18.194C131.656 18.9769 131.901 19.9055 131.91 20.9799H128.524C128.516 20.5301 128.42 20.122 128.237 19.7556C128.062 19.3891 127.804 19.0976 127.462 18.8811C127.129 18.6562 126.717 18.5438 126.226 18.5438C125.701 18.5438 125.272 18.6562 124.939 18.8811C124.606 19.0976 124.347 19.3975 124.164 19.7806C123.981 20.1554 123.852 20.5843 123.777 21.0673C123.71 21.5421 123.677 22.0418 123.677 22.5665V22.9288C123.677 23.4535 123.71 23.9573 123.777 24.4404C123.844 24.9235 123.968 25.3524 124.152 25.7272C124.343 26.1019 124.606 26.3976 124.939 26.6142C125.272 26.8307 125.705 26.939 126.238 26.939ZM140.217 29.7499C139.168 29.7499 138.227 29.5833 137.394 29.2501C136.561 28.9087 135.853 28.4381 135.27 27.8385C134.696 27.2388 134.254 26.5434 133.946 25.7521C133.638 24.9526 133.484 24.1031 133.484 23.2036V22.7039C133.484 21.6795 133.63 20.7425 133.921 19.893C134.213 19.0435 134.629 18.3064 135.17 17.6818C135.72 17.0571 136.386 16.5782 137.169 16.2451C137.952 15.9036 138.835 15.7329 139.818 15.7329C140.775 15.7329 141.625 15.8911 142.366 16.2076C143.107 16.5241 143.728 16.9739 144.228 17.5569C144.736 18.1398 145.119 18.8394 145.377 19.6556C145.635 20.4635 145.764 21.363 145.764 22.3541V23.8532H135.02V21.4546H142.229V21.1798C142.229 20.6801 142.137 20.2345 141.954 19.843C141.779 19.4433 141.513 19.1268 141.154 18.8936C140.796 18.6604 140.338 18.5438 139.78 18.5438C139.306 18.5438 138.897 18.6479 138.556 18.8561C138.214 19.0643 137.935 19.3558 137.719 19.7306C137.511 20.1054 137.352 20.5468 137.244 21.0548C137.144 21.5546 137.094 22.1042 137.094 22.7039V23.2036C137.094 23.745 137.169 24.2447 137.319 24.7028C137.477 25.1608 137.698 25.5564 137.981 25.8896C138.273 26.2227 138.623 26.4809 139.031 26.6641C139.447 26.8474 139.918 26.939 140.442 26.939C141.092 26.939 141.696 26.814 142.254 26.5642C142.82 26.306 143.307 25.9187 143.715 25.4024L145.464 27.3013C145.181 27.7094 144.794 28.1008 144.303 28.4756C143.82 28.8504 143.237 29.1585 142.554 29.4001C141.871 29.6333 141.092 29.7499 140.217 29.7499ZM164.953 23.466H168.689C168.614 24.6903 168.276 25.7771 167.677 26.7266C167.085 27.676 166.257 28.4173 165.191 28.9503C164.133 29.4833 162.859 29.7499 161.368 29.7499C160.202 29.7499 159.157 29.55 158.232 29.1502C157.308 28.7421 156.516 28.1591 155.859 27.4012C155.209 26.6433 154.713 25.7272 154.372 24.6528C154.03 23.5784 153.86 22.3749 153.86 21.0424V19.7806C153.86 18.448 154.035 17.2445 154.384 16.1701C154.742 15.0874 155.251 14.1671 155.908 13.4092C156.575 12.6513 157.37 12.0683 158.295 11.6602C159.219 11.2521 160.252 11.0481 161.393 11.0481C162.909 11.0481 164.187 11.3229 165.228 11.8726C166.278 12.4223 167.09 13.1802 167.664 14.1463C168.247 15.1124 168.597 16.2118 168.714 17.4444H164.966C164.924 16.7115 164.778 16.091 164.529 15.583C164.279 15.0666 163.9 14.6793 163.392 14.4211C162.892 14.1546 162.226 14.0214 161.393 14.0214C160.768 14.0214 160.223 14.138 159.756 14.3712C159.29 14.6044 158.898 14.9583 158.582 15.4331C158.265 15.9078 158.028 16.5075 157.87 17.232C157.72 17.9483 157.645 18.7895 157.645 19.7556V21.0424C157.645 21.9835 157.716 22.8122 157.857 23.5284C157.999 24.2364 158.215 24.836 158.507 25.3274C158.807 25.8104 159.19 26.1769 159.656 26.4268C160.131 26.6683 160.702 26.7891 161.368 26.7891C162.151 26.7891 162.796 26.6641 163.304 26.4143C163.812 26.1644 164.2 25.7938 164.466 25.3024C164.741 24.811 164.903 24.1989 164.953 23.466ZM170.35 22.8788V22.6164C170.35 21.6253 170.492 20.7134 170.775 19.8805C171.058 19.0393 171.47 18.3106 172.012 17.6943C172.553 17.078 173.219 16.5991 174.011 16.2576C174.802 15.9078 175.71 15.7329 176.734 15.7329C177.758 15.7329 178.67 15.9078 179.47 16.2576C180.27 16.5991 180.94 17.078 181.481 17.6943C182.031 18.3106 182.447 19.0393 182.731 19.8805C183.014 20.7134 183.155 21.6253 183.155 22.6164V22.8788C183.155 23.8616 183.014 24.7735 182.731 25.6147C182.447 26.4476 182.031 27.1763 181.481 27.801C180.94 28.4173 180.274 28.8962 179.482 29.2377C178.691 29.5791 177.783 29.7499 176.759 29.7499C175.735 29.7499 174.823 29.5791 174.023 29.2377C173.232 28.8962 172.561 28.4173 172.012 27.801C171.47 27.1763 171.058 26.4476 170.775 25.6147C170.492 24.7735 170.35 23.8616 170.35 22.8788ZM173.948 22.6164V22.8788C173.948 23.4451 173.998 23.974 174.098 24.4654C174.198 24.9568 174.356 25.3899 174.573 25.7646C174.798 26.1311 175.089 26.4184 175.447 26.6266C175.805 26.8349 176.243 26.939 176.759 26.939C177.259 26.939 177.688 26.8349 178.046 26.6266C178.404 26.4184 178.691 26.1311 178.908 25.7646C179.124 25.3899 179.283 24.9568 179.383 24.4654C179.491 23.974 179.545 23.4451 179.545 22.8788V22.6164C179.545 22.0668 179.491 21.5504 179.383 21.0673C179.283 20.576 179.12 20.1429 178.895 19.7681C178.679 19.385 178.391 19.0851 178.033 18.8686C177.675 18.6521 177.242 18.5438 176.734 18.5438C176.226 18.5438 175.793 18.6521 175.435 18.8686C175.085 19.0851 174.798 19.385 174.573 19.7681C174.356 20.1429 174.198 20.576 174.098 21.0673C173.998 21.5504 173.948 22.0668 173.948 22.6164ZM188.89 18.8686V29.5H185.292V15.9828H188.665L188.89 18.8686ZM188.365 22.2666H187.39C187.39 21.2672 187.52 20.3677 187.778 19.5682C188.036 18.7603 188.398 18.0732 188.865 17.5069C189.331 16.9322 189.885 16.495 190.526 16.1951C191.176 15.887 191.9 15.7329 192.7 15.7329C193.333 15.7329 193.912 15.8245 194.436 16.0077C194.961 16.191 195.411 16.4825 195.786 16.8822C196.169 17.282 196.46 17.8109 196.66 18.4688C196.868 19.1268 196.972 19.9305 196.972 20.8799V29.5H193.35V20.8675C193.35 20.2678 193.266 19.8014 193.1 19.4683C192.933 19.1351 192.687 18.9019 192.363 18.7687C192.046 18.6271 191.655 18.5563 191.188 18.5563C190.705 18.5563 190.285 18.6521 189.926 18.8436C189.577 19.0352 189.285 19.3017 189.052 19.6432C188.827 19.9763 188.656 20.3677 188.54 20.8175C188.423 21.2672 188.365 21.7503 188.365 22.2666ZM206.33 15.9828V18.5313H198.459V15.9828H206.33ZM200.408 12.6472H204.006V25.4273C204.006 25.8188 204.056 26.1186 204.156 26.3268C204.264 26.535 204.422 26.6808 204.631 26.7641C204.839 26.839 205.101 26.8765 205.418 26.8765C205.642 26.8765 205.842 26.8682 206.017 26.8515C206.2 26.8265 206.355 26.8015 206.479 26.7766L206.492 29.425C206.184 29.525 205.851 29.6041 205.493 29.6624C205.134 29.7207 204.739 29.7499 204.306 29.7499C203.515 29.7499 202.823 29.6208 202.232 29.3626C201.649 29.0961 201.199 28.6713 200.883 28.0883C200.566 27.5053 200.408 26.7391 200.408 25.7896V12.6472ZM211.976 18.9311V29.5H208.378V15.9828H211.764L211.976 18.9311ZM216.049 15.8953L215.987 19.2309C215.812 19.2059 215.599 19.1851 215.349 19.1684C215.108 19.1434 214.887 19.1309 214.687 19.1309C214.179 19.1309 213.738 19.1976 213.363 19.3308C212.997 19.4558 212.688 19.6432 212.439 19.893C212.197 20.1429 212.014 20.4469 211.889 20.805C211.772 21.1631 211.706 21.5712 211.689 22.0293L210.964 21.8044C210.964 20.9299 211.052 20.1262 211.227 19.3933C211.402 18.6521 211.656 18.0066 211.989 17.4569C212.33 16.9072 212.747 16.4825 213.238 16.1826C213.729 15.8828 214.292 15.7329 214.925 15.7329C215.125 15.7329 215.329 15.7496 215.537 15.7829C215.745 15.8079 215.916 15.8453 216.049 15.8953ZM216.799 22.8788V22.6164C216.799 21.6253 216.94 20.7134 217.223 19.8805C217.506 19.0393 217.919 18.3106 218.46 17.6943C219.001 17.078 219.668 16.5991 220.459 16.2576C221.25 15.9078 222.158 15.7329 223.182 15.7329C224.207 15.7329 225.119 15.9078 225.918 16.2576C226.718 16.5991 227.388 17.078 227.93 17.6943C228.479 18.3106 228.896 19.0393 229.179 19.8805C229.462 20.7134 229.604 21.6253 229.604 22.6164V22.8788C229.604 23.8616 229.462 24.7735 229.179 25.6147C228.896 26.4476 228.479 27.1763 227.93 27.801C227.388 28.4173 226.722 28.8962 225.931 29.2377C225.14 29.5791 224.232 29.7499 223.207 29.7499C222.183 29.7499 221.271 29.5791 220.471 29.2377C219.68 28.8962 219.01 28.4173 218.46 27.801C217.919 27.1763 217.506 26.4476 217.223 25.6147C216.94 24.7735 216.799 23.8616 216.799 22.8788ZM220.396 22.6164V22.8788C220.396 23.4451 220.446 23.974 220.546 24.4654C220.646 24.9568 220.805 25.3899 221.021 25.7646C221.246 26.1311 221.538 26.4184 221.896 26.6266C222.254 26.8349 222.691 26.939 223.207 26.939C223.707 26.939 224.136 26.8349 224.494 26.6266C224.852 26.4184 225.14 26.1311 225.356 25.7646C225.573 25.3899 225.731 24.9568 225.831 24.4654C225.939 23.974 225.993 23.4451 225.993 22.8788V22.6164C225.993 22.0668 225.939 21.5504 225.831 21.0673C225.731 20.576 225.569 20.1429 225.344 19.7681C225.127 19.385 224.84 19.0851 224.482 18.8686C224.124 18.6521 223.69 18.5438 223.182 18.5438C222.674 18.5438 222.241 18.6521 221.883 18.8686C221.533 19.0851 221.246 19.385 221.021 19.7681C220.805 20.1429 220.646 20.576 220.546 21.0673C220.446 21.5504 220.396 22.0668 220.396 22.6164ZM235.613 10.311V29.5H232.002V10.311H235.613Z" fill="#E1E1E6"/>
</svg>
